<svg width="12" height="12" viewBox="0 0 12 12" fill="none" xmlns="http://www.w3.org/2000/svg">
<path d="M10.4682 6.53639C10.5677 6.4865 10.6514 6.40991 10.7099 6.31518C10.7684 6.22045 10.7993 6.11132 10.7993 5.99999C10.7993 5.88866 10.7684 5.77952 10.7099 5.68479C10.6514 5.59006 10.5677 5.51347 10.4682 5.46359L2.06819 1.26359C1.96403 1.21147 1.84697 1.1908 1.73126 1.20408C1.61556 1.21737 1.50622 1.26404 1.41659 1.3384C1.32696 1.41276 1.26091 1.51161 1.2265 1.62287C1.19208 1.73413 1.19079 1.853 1.22279 1.96499L2.08019 4.96499C2.11605 5.09037 2.19179 5.20066 2.29594 5.27915C2.40009 5.35764 2.52697 5.40006 2.65739 5.39999L5.39999 5.39999C5.55912 5.39999 5.71173 5.4632 5.82425 5.57572C5.93677 5.68824 5.99999 5.84086 5.99999 5.99999C5.99999 6.15912 5.93677 6.31173 5.82425 6.42425C5.71173 6.53677 5.55912 6.59999 5.39999 6.59999L2.65739 6.59999C2.52697 6.59991 2.40009 6.64233 2.29594 6.72082C2.19179 6.79931 2.11605 6.9096 2.08019 7.03499L1.22339 10.035C1.19133 10.1469 1.19254 10.2658 1.22688 10.3771C1.26121 10.4883 1.32718 10.5872 1.41674 10.6616C1.5063 10.736 1.61558 10.7828 1.73126 10.7962C1.84693 10.8096 1.964 10.789 2.06819 10.737L10.4682 6.53699L10.4682 6.53639Z" fill="#8E8EA0"/>
</svg>
